HIERARCHY
ROOT simHips
{
  OFFSET 102.609 99.8512 -5.77822
  CHANNELS 6 Xposition Yposition Zposition Zrotation Xrotation Yrotation
  JOINT simSpine
  {
    OFFSET -0.000355721 21.3001 -0.016921
    CHANNELS 3 Zrotation Xrotation Yrotation
    JOINT simLeftArm
    {
      OFFSET 13.5181 21.3012 0
      CHANNELS 3 Zrotation Xrotation Yrotation
      JOINT simLeftForeArm
      {
        OFFSET 24.5783 0 0
        CHANNELS 3 Zrotation Xrotation Yrotation
        JOINT simLeftHand
        {
          OFFSET 24.5783 0 0
          CHANNELS 3 Zrotation Xrotation Yrotation
          End Site
          {
            OFFSET 7.32568 1.52588e-05 0.0169305
          }
        }
      }
    }
    JOINT simHead
    {
      OFFSET 0 27.4458 -0.00489235
      CHANNELS 3 Zrotation Xrotation Yrotation
      End Site
      {
        OFFSET 0 0 0
      }
    }
    JOINT simRightArm
    {
      OFFSET -13.5174 21.3012 0
      CHANNELS 3 Zrotation Xrotation Yrotation
      JOINT simRightForeArm
      {
        OFFSET -24.5783 0 0
        CHANNELS 3 Zrotation Xrotation Yrotation
        JOINT simRightHand
        {
          OFFSET -24.5783 0 0
          CHANNELS 3 Zrotation Xrotation Yrotation
          End Site
          {
            OFFSET -7.32568 1.52588e-05 0.0169305
          }
        }
      }
    }
  }
  JOINT simRightUpLeg
  {
    OFFSET -8.44614 -9.41038 0.835684
    CHANNELS 3 Zrotation Xrotation Yrotation
    JOINT simRightLeg
    {
      OFFSET 0 -40.9639 0
      CHANNELS 3 Zrotation Xrotation Yrotation
      JOINT simRightFoot
      {
        OFFSET 0 -40.9639 0
        CHANNELS 3 Zrotation Xrotation Yrotation
        End Site
        {
          OFFSET 0.50614 -9.67405 14.6709
        }
      }
    }
  }
  JOINT simLeftUpLeg
  {
    OFFSET 8.44614 -9.41038 0.835684
    CHANNELS 3 Zrotation Xrotation Yrotation
    JOINT simLeftLeg
    {
      OFFSET 0 -40.9639 0
      CHANNELS 3 Zrotation Xrotation Yrotation
      JOINT simLeftFoot
      {
        OFFSET 0 -40.9639 0
        CHANNELS 3 Zrotation Xrotation Yrotation
        End Site
        {
          OFFSET -0.50614 -9.67405 14.6709
        }
      }
    }
  }
}
MOTION
Frames:	17
Frame Time:	0.0333333
60.1963 96.8499 3.15702 -1.79866 2.05538 -147.577 3.3326 12.2312 3.09361 -68.8963 1.39725 -0.140533 24.0245 -12.252 -75.6083 16.7178 -14.4295 -0.690039 -7.79837 2.79392 47.1161 28.9462 35.7268 62.9484 -28.4992 -25.8952 86.4011 1.29259 -46.6702 5.34301 -8.41564 -14.0043 -3.52619 5.73715 31.8229 -2.27233 4.67089 -13.1125 6.16982 16.4989 -6.43518 16.5525 -0.518524 3.28314 -0.0869787 -13.5228 12.3248 7.7552 
59.5091 96.6798 3.75959 -2.00532 1.67453 -148.424 2.70362 13.1121 4.03208 -68.5975 1.70515 -1.28066 23.9425 -12.0856 -75.1358 16.7983 -14.5553 -1.10427 -8.43448 1.53348 47.1794 28.7679 35.1885 62.646 -28.5644 -26.8033 88.3032 2.71433 -46.6603 6.81416 -11.7074 -15.9992 -8.2099 6.42992 34.2137 -2.69331 5.91324 -12.8258 0.0353516 16.3761 -7.57455 15.6265 -1.55415 5.83409 0.115341 -12.523 10.5012 9.01139 
58.9591 96.4023 4.08118 -2.44432 1.61518 -148.571 2.81945 13.89 5.09104 -69.5842 2.19294 -1.60181 23.9668 -12.1347 -75.275 16.7861 -15.2472 -1.24218 -10.1553 1.44312 46.8808 28.0701 35.0151 62.71 -28.5961 -27.7153 90.2249 3.54241 -46.0948 7.96581 -14.4439 -16.4267 -9.7763 7.08976 36.7003 -3.24748 1.57624 -12.986 -5.674 17.0277 -9.59389 14.8734 -3.45322 10.8447 0.360399 -10.9766 7.90643 9.50955 
58.6661 95.9722 4.07174 -2.87484 1.72234 -148.359 3.19486 14.3617 6.1321 -71.3577 2.53726 -1.36647 24.0631 -12.3315 -75.8332 16.5223 -15.3942 -1.29772 -11.4157 1.9915 46.3511 27.2086 34.5345 63.2869 -28.5985 -27.8957 90.6067 4.57503 -46.4086 8.95388 -15.7069 -15.5326 -7.44231 7.53498 38.363 -3.5159 3.18379 -12.5293 -4.04343 18.1766 -11.5045 15.1566 -5.41288 15.9346 0.792013 -10.0653 5.5987 8.86132 
58.7256 95.3172 3.80332 -2.95075 1.63736 -147.778 3.56956 14.2532 6.94647 -72.6849 2.84884 -0.554414 24.2556 -12.7399 -76.983 16.0021 -15.0375 -1.60009 -11.7168 2.1254 45.3991 26.8057 33.7258 63.8121 -28.5932 -27.5675 89.9127 4.27539 -45.8123 8.65076 -15.89 -13.7645 -5.84858 7.09723 36.678 -3.12339 6.70344 -15.1274 -1.01147 19.9714 -13.6058 16.5438 -7.39805 20.5708 1.41119 -9.24411 3.99373 7.11351 
58.9354 94.6474 3.49004 -3.1208 1.91058 -147.078 3.95158 14.6588 7.17985 -73.4473 2.589 0.28038 24.4066 -13.0757 -77.9212 15.6844 -15.1968 -1.63954 -11.7081 1.31816 44.8604 26.4958 32.8623 64.1187 -28.5878 -27.3539 89.4618 3.73384 -44.9971 8.38538 -15.4723 -13.5464 -5.16546 7.37967 37.7542 -3.36095 5.62016 -17.5487 -2.31941 21.62 -14.988 16.9459 -9.18714 24.2032 2.10315 -8.78194 2.61772 6.03698 
59.0768 94.1536 3.37359 -3.58541 2.05245 -147.055 3.89072 15.2358 7.24879 -74.0272 1.81782 1.05306 24.4046 -13.0712 -77.9087 15.5608 -15.5666 -1.5912 -11.8322 0.579963 45.1111 26.3704 32.7119 64.0724 -28.5877 -27.3527 89.4592 4.01032 -45.5952 8.57799 -15.8615 -14.7154 -4.66812 8.1893 40.6723 -3.97929 4.79538 -18.67 -3.1568 22.2324 -15.7074 16.5723 -10.4359 26.5579 2.65125 -8.5791 1.49881 6.26973 
59.2076 93.7125 3.11671 -4.17514 2.02866 -146.574 3.54026 15.3886 6.75446 -73.8666 1.71214 1.85848 24.3185 -12.8779 -77.3692 15.5506 -15.5966 -1.49225 -11.8203 0.86992 45.2302 26.7075 32.9449 63.3633 -28.5902 -27.4069 89.579 3.72672 -45.8408 8.45626 -16.5912 -14.8746 -4.93495 8.67477 42.2912 -4.35224 4.7845 -19.961 -3.02756 22.1763 -16.4131 15.2843 -11.3357 28.2333 3.07555 -8.54011 0.519812 6.93044 
59.3203 93.4135 2.8639 -4.44077 1.93688 -146.1 3.37718 15.5248 6.21364 -73.3174 2.00798 1.96707 24.1944 -12.6077 -76.6119 15.5927 -15.3197 -1.60711 -11.9256 1.19246 45.2927 26.9168 32.9631 62.5921 -28.59 -27.4268 89.6157 3.39647 -45.6368 8.37139 -16.8649 -14.9434 -4.95088 8.96637 43.2206 -4.58026 4.80082 -20.9566 -3.20364 22.4562 -16.9477 15.2528 -11.948 29.3916 3.3784 -8.77547 0.140167 6.49084 
59.3287 93.2096 2.73323 -4.58315 1.82239 -146.001 3.222 15.7934 5.73536 -73.05 2.1359 2.03684 24.1972 -12.6137 -76.6286 15.6963 -15.225 -1.62758 -11.8837 1.03078 45.5287 26.8127 32.9242 62.0922 -28.5888 -27.39 89.5378 3.74343 -45.7715 8.71698 -17.0561 -15.0927 -4.71463 9.13952 43.757 -4.70913 5.12431 -21.5766 -3.17408 23.1728 -17.5708 16.1657 -12.8103 31.0236 3.83413 -8.88406 0.144034 5.45667 
59.2147 93.0284 2.77969 -4.35581 1.54751 -145.83 3.45564 16.0705 5.24172 -73.1165 2.62596 2.25755 24.3674 -12.987 -77.674 16.5138 -16.1184 -0.867171 -11.9968 0.114961 45.6369 26.0359 32.3723 62.2691 -28.5858 -27.2813 89.3086 4.09653 -47.7236 8.81074 -17.495 -15.441 -5.45978 9.23668 44.0539 -4.7634 6.09027 -21.8046 -2.22042 24.8056 -19.3221 17.8772 -14.4744 34.2143 4.79451 -8.58581 0.772494 3.67809 
58.8224 92.822 3.0529 -4.16132 0.86041 -146.521 3.30515 16.4177 5.44568 -73.0796 3.96564 3.27837 24.7366 -13.866 -80.1055 18.0226 -18.8027 0.869925 -12.0708 -1.59504 46.1256 25.1191 31.1751 64.1153 -28.5873 -27.3463 89.4459 4.1212 -50.4617 8.32701 -18.8602 -16.5879 -7.00623 9.45686 44.7185 -4.92445 6.62632 -21.5738 -0.119574 26.6545 -21.3231 20.5259 -16.5691 37.9354 6.11146 -8.20151 1.773 2.10958 
58.1147 92.5488 3.52362 -4.25047 -0.0155406 -148.46 2.33183 17.1066 6.49663 -71.3775 5.97645 4.99474 25.4568 -15.9906 -85.8492 16.5714 -27.0043 2.98121 -12.5648 -4.23819 46.8559 24.4269 30.1265 67.356 -28.5924 -27.5221 89.8166 8.26311 -53.02 11.6174 -21.2505 -18.7566 -8.86899 10.0636 46.4584 -5.38757 7.30209 -20.6153 3.22057 28.2491 -22.2577 24.0287 -18.0088 40.264 7.07417 -8.08938 2.85041 2.20874 
57.5049 92.1109 4.12224 -4.66539 -0.405667 -150.377 0.607949 18.6113 9.23975 -64.5199 7.37725 0.519344 26.0216 -18.5561 -92.6356 13.5656 -32.8498 2.19314 -15.2903 -6.87754 44.6839 22.5787 31.6861 67.3719 -28.5978 -27.8495 90.5088 11.7782 -55.4699 16.6196 -24.1751 -22.0809 -10.3931 11.8879 51.0161 -6.852 8.11403 -18.5292 6.49782 29.2478 -21.8207 26.4475 -16.9927 38.6403 6.38751 -9.38268 5.11366 4.83644 
57.4456 91.2086 4.52518 -5.05192 -0.0448274 -149.776 -1.61281 20.5509 10.7887 -54.2994 3.69657 -14.8058 26.1713 -19.7166 -95.6861 15.7698 -31.9391 1.57293 -17.4248 -7.82569 43.5426 22.4331 37.3301 62.4808 -28.4452 -25.3586 85.281 11.6317 -54.3455 16.4308 -25.9477 -26.7717 -8.60693 16.6692 59.5519 -10.9465 9.9657 -15.4746 6.01323 29.7191 -22.0694 25.8794 -14.8733 34.9555 5.05097 -10.2368 8.65285 4.73581 
57.8681 89.4475 4.57274 -5.34669 1.43488 -145.703 -3.77779 23.2728 7.70252 -43.5872 -2.57444 -32.6113 26.146 -19.4786 -95.0606 20.4714 -30.1393 0.634418 -15.1066 -9.28351 43.7291 28.3657 46.3356 53.0619 -27.354 -20.1722 74.4661 3.38297 -50.8078 8.61067 -25.8504 -30.2156 -4.51562 25.7308 68.4549 -19.2181 13.6376 -12.7681 4.15779 30.2837 -24.235 21.8435 -14.1833 33.6599 4.61295 -11.5733 10.3689 2.24121 
58.3788 86.7922 4.52585 -5.5456 3.07421 -139.395 -4.64399 26.9527 1.98624 -34.7413 -5.12909 -47.1991 25.7844 -17.2868 -89.2915 21.0676 -25.7782 -2.37634 -10.0221 -12.8273 42.7844 39.8448 54.1264 39.4143 -25.7654 -16.246 66.0334 4.52038 -61.9839 2.37235 -24.5107 -31.9281 -0.294986 40.5368 75.0061 -33.4768 12.6782 -13.6963 4 30.2551 -28.9421 14.3423 -16.3404 37.5256 5.88623 -11.2603 5.81006 2.04096 
